<?xml version="1.0" encoding="UTF-8" standalone="no"?>
<!-- Created with Inkscape (http://www.inkscape.org/) -->
<svg
   xmlns:svg="http://www.w3.org/2000/svg"
   xmlns="http://www.w3.org/2000/svg"
   version="1.0"
   width="240"
   height="240.00005"
   id="svg3720">
  <defs
     id="defs3722" />
  <g
     transform="translate(-285.71429,-332.36215)"
     id="layer1">
    <g
       transform="matrix(0.7071068,-0.7071068,0.7071068,0.7071068,-571.07757,224.40762)"
       id="g3362"
       style="stroke:#00ff00;stroke-opacity:1">
      <path
         d="M 400,567.36218 A 25,25 0 1 1 375,542.36218"
         transform="matrix(1.9607843,0,0,1.9607843,-255.29411,-211.09307)"
         id="path3364"
         style="fill:none;stroke:#00ff00;stroke-width:1;stroke-linejoin:miter;stroke-miterlimit:4;stroke-dasharray:none;stroke-opacity:1" />
      <path
         d="M 529.01923,901.40102 L 529.01923,852.36256 L 479.98077,852.36256"
         id="path3366"
         style="fill:none;fill-rule:evenodd;stroke:#00ff00;stroke-width:1.96153855;stroke-linecap:butt;stroke-linejoin:miter;stroke-miterlimit:4;stroke-dasharray:none;stroke-opacity:1" />
    </g>
    <g
       transform="matrix(0.7071068,0.7071068,0.7071068,-0.7071068,-571.07018,680.32902)"
       id="g3368"
       style="stroke:#00ff00;stroke-opacity:1">
      <path
         d="M 400,567.36218 A 25,25 0 1 1 375,542.36218"
         transform="matrix(1.9607843,0,0,1.9607843,-255.29411,-211.09307)"
         id="path3370"
         style="fill:none;stroke:#00ff00;stroke-width:1;stroke-linejoin:miter;stroke-miterlimit:4;stroke-dasharray:none;stroke-opacity:1" />
      <path
         d="M 529.01923,901.40102 L 529.01923,852.36256 L 479.98077,852.36256"
         id="path3372"
         style="fill:none;fill-rule:evenodd;stroke:#00ff00;stroke-width:1.96153855;stroke-linecap:butt;stroke-linejoin:miter;stroke-miterlimit:4;stroke-dasharray:none;stroke-opacity:1" />
    </g>
    <g
       transform="matrix(0.7071068,0.7071068,-0.7071068,0.7071068,633.66882,-524.4149)"
       id="g3374"
       style="stroke:#00ff00;stroke-opacity:1">
      <path
         d="M 400,567.36218 A 25,25 0 1 1 375,542.36218"
         transform="matrix(1.9607843,0,0,1.9607843,-255.29411,-211.09307)"
         id="path3376"
         style="fill:none;stroke:#00ff00;stroke-width:1;stroke-linejoin:miter;stroke-miterlimit:4;stroke-dasharray:none;stroke-opacity:1" />
      <path
         d="M 529.01923,901.40102 L 529.01923,852.36256 L 479.98077,852.36256"
         id="path3378"
         style="fill:none;fill-rule:evenodd;stroke:#00ff00;stroke-width:1.96153855;stroke-linecap:butt;stroke-linejoin:miter;stroke-miterlimit:4;stroke-dasharray:none;stroke-opacity:1" />
    </g>
    <g
       transform="translate(-73.601975,-379.99255)"
       id="g3380"
       style="stroke:#00ff00;stroke-opacity:1">
      <path
         d="M 400,567.36218 A 25,25 0 1 1 375,542.36218"
         transform="matrix(-1.3864839,-1.3864839,1.3864839,-1.3864839,282.61659,2138.9321)"
         id="path3382"
         style="fill:none;stroke:#00ff00;stroke-width:1;stroke-linejoin:miter;stroke-miterlimit:4;stroke-dasharray:none;stroke-opacity:1" />
      <path
         d="M 510,802.36218 L 480,832.36214 L 510,862.36218"
         id="path3384"
         style="fill:none;fill-rule:evenodd;stroke:#00ff00;stroke-width:1.96153855;stroke-linecap:butt;stroke-linejoin:miter;stroke-miterlimit:4;stroke-dasharray:none;stroke-opacity:1" />
    </g>
    <path
       d="M 400,567.36218 A 25,25 0 1 1 350,567.36218 A 25,25 0 1 1 400,567.36218 z"
       transform="matrix(1.9607843,0,0,1.9607843,-329.57981,-660.11271)"
       id="path3386"
       style="fill:none;stroke:#00ff00;stroke-width:1;stroke-linejoin:miter;stroke-miterlimit:4;stroke-dasharray:none;stroke-opacity:1" />
    <g
       transform="translate(-144.28571,-449.01964)"
       id="g3388"
       style="stroke:#00ff00;stroke-opacity:1">
      <path
         d="M 400,567.36218 A 25,25 0 1 1 375,542.36218"
         transform="matrix(1.9607843,0,0,1.9607843,-255.29411,-211.09307)"
         id="path3390"
         style="fill:none;stroke:#00ff00;stroke-width:1;stroke-linejoin:miter;stroke-miterlimit:4;stroke-dasharray:none;stroke-opacity:1" />
      <path
         d="M 529.01923,901.40102 L 529.01923,852.36256 L 479.98077,852.36256"
         id="path3392"
         style="fill:none;fill-rule:evenodd;stroke:#00ff00;stroke-width:1.96153855;stroke-linecap:butt;stroke-linejoin:miter;stroke-miterlimit:4;stroke-dasharray:none;stroke-opacity:1" />
    </g>
    <g
       transform="matrix(-1,0,0,1,885.71429,-379.01964)"
       id="g3394"
       style="stroke:#00ff00;stroke-opacity:1">
      <path
         d="M 400,567.36218 A 25,25 0 1 1 375,542.36218"
         transform="matrix(1.9607843,0,0,1.9607843,-255.29411,-211.09307)"
         id="path3396"
         style="fill:none;stroke:#00ff00;stroke-width:1;stroke-linejoin:miter;stroke-miterlimit:4;stroke-dasharray:none;stroke-opacity:1" />
      <path
         d="M 529.01923,901.40102 L 529.01923,852.36256 L 479.98077,852.36256"
         id="path3398"
         style="fill:none;fill-rule:evenodd;stroke:#00ff00;stroke-width:1.96153855;stroke-linecap:butt;stroke-linejoin:miter;stroke-miterlimit:4;stroke-dasharray:none;stroke-opacity:1" />
    </g>
    <g
       transform="matrix(0,1,-1,0,1307.096,-97.637852)"
       id="g3400"
       style="stroke:#00ff00;stroke-opacity:1">
      <path
         d="M 400,567.36218 A 25,25 0 1 1 375,542.36218"
         transform="matrix(1.9607843,0,0,1.9607843,-255.29411,-211.09307)"
         id="path3402"
         style="fill:none;stroke:#00ff00;stroke-width:1;stroke-linejoin:miter;stroke-miterlimit:4;stroke-dasharray:none;stroke-opacity:1" />
      <path
         d="M 529.01923,901.40102 L 529.01923,852.36256 L 479.98077,852.36256"
         id="path3404"
         style="fill:none;fill-rule:evenodd;stroke:#00ff00;stroke-width:1.96153855;stroke-linecap:butt;stroke-linejoin:miter;stroke-miterlimit:4;stroke-dasharray:none;stroke-opacity:1" />
    </g>
    <g
       transform="matrix(-1,0,0,-1,955.71429,1353.744)"
       id="g3406"
       style="stroke:#00ff00;stroke-opacity:1">
      <path
         d="M 400,567.36218 A 25,25 0 1 1 375,542.36218"
         transform="matrix(1.9607843,0,0,1.9607843,-255.29411,-211.09307)"
         id="path3408"
         style="fill:none;stroke:#00ff00;stroke-width:1;stroke-linejoin:miter;stroke-miterlimit:4;stroke-dasharray:none;stroke-opacity:1" />
      <path
         d="M 529.01923,901.40102 L 529.01923,852.36256 L 479.98077,852.36256"
         id="path3410"
         style="fill:none;fill-rule:evenodd;stroke:#00ff00;stroke-width:1.96153855;stroke-linecap:butt;stroke-linejoin:miter;stroke-miterlimit:4;stroke-dasharray:none;stroke-opacity:1" />
    </g>
    <g
       transform="matrix(-1,0,0,1,955.71429,-449.01963)"
       id="g3412"
       style="stroke:#00ff00;stroke-opacity:1">
      <path
         d="M 400,567.36218 A 25,25 0 1 1 375,542.36218"
         transform="matrix(1.9607843,0,0,1.9607843,-255.29411,-211.09307)"
         id="path3414"
         style="fill:none;stroke:#00ff00;stroke-width:1;stroke-linejoin:miter;stroke-miterlimit:4;stroke-dasharray:none;stroke-opacity:1" />
      <path
         d="M 529.01923,901.40102 L 529.01923,852.36256 L 479.98077,852.36256"
         id="path3416"
         style="fill:none;fill-rule:evenodd;stroke:#00ff00;stroke-width:1.96153855;stroke-linecap:butt;stroke-linejoin:miter;stroke-miterlimit:4;stroke-dasharray:none;stroke-opacity:1" />
    </g>
    <g
       transform="matrix(0,-1,-1,0,1307.096,1002.3622)"
       id="g3418"
       style="stroke:#00ff00;stroke-opacity:1">
      <path
         d="M 400,567.36218 A 25,25 0 1 1 375,542.36218"
         transform="matrix(1.9607843,0,0,1.9607843,-255.29411,-211.09307)"
         id="path3420"
         style="fill:none;stroke:#00ff00;stroke-width:1;stroke-linejoin:miter;stroke-miterlimit:4;stroke-dasharray:none;stroke-opacity:1" />
      <path
         d="M 529.01923,901.40102 L 529.01923,852.36256 L 479.98077,852.36256"
         id="path3422"
         style="fill:none;fill-rule:evenodd;stroke:#00ff00;stroke-width:1.96153855;stroke-linecap:butt;stroke-linejoin:miter;stroke-miterlimit:4;stroke-dasharray:none;stroke-opacity:1" />
    </g>
    <g
       transform="matrix(1,0,0,-1,-144.28571,1353.744)"
       id="g3424"
       style="stroke:#00ff00;stroke-opacity:1">
      <path
         d="M 400,567.36218 A 25,25 0 1 1 375,542.36218"
         transform="matrix(1.9607843,0,0,1.9607843,-255.29411,-211.09307)"
         id="path3426"
         style="fill:none;stroke:#00ff00;stroke-width:1;stroke-linejoin:miter;stroke-miterlimit:4;stroke-dasharray:none;stroke-opacity:1" />
      <path
         d="M 529.01923,901.40102 L 529.01923,852.36256 L 479.98077,852.36256"
         id="path3428"
         style="fill:none;fill-rule:evenodd;stroke:#00ff00;stroke-width:1.96153855;stroke-linecap:butt;stroke-linejoin:miter;stroke-miterlimit:4;stroke-dasharray:none;stroke-opacity:1" />
    </g>
    <g
       transform="matrix(0,1,1,0,-495.6675,-97.637852)"
       id="g3430"
       style="stroke:#00ff00;stroke-opacity:1">
      <path
         d="M 400,567.36218 A 25,25 0 1 1 375,542.36218"
         transform="matrix(1.9607843,0,0,1.9607843,-255.29411,-211.09307)"
         id="path3432"
         style="fill:none;stroke:#00ff00;stroke-width:1;stroke-linejoin:miter;stroke-miterlimit:4;stroke-dasharray:none;stroke-opacity:1" />
      <path
         d="M 529.01923,901.40102 L 529.01923,852.36256 L 479.98077,852.36256"
         id="path3434"
         style="fill:none;fill-rule:evenodd;stroke:#00ff00;stroke-width:1.96153855;stroke-linecap:butt;stroke-linejoin:miter;stroke-miterlimit:4;stroke-dasharray:none;stroke-opacity:1" />
    </g>
    <g
       transform="matrix(0.4419418,0.4419418,0.4419418,-0.4419418,108.37701,471.86324)"
       id="g3442"
       style="stroke:#00ff00;stroke-opacity:1">
      <path
         d="M 400,567.36218 A 25,25 0 1 1 375,542.36218"
         transform="matrix(1.9607843,0,0,1.9607843,-520.88923,-654.08237)"
         id="path3444"
         style="fill:none;stroke:#00ff00;stroke-width:1;stroke-linejoin:miter;stroke-miterlimit:4;stroke-dasharray:none;stroke-opacity:1" />
      <path
         d="M 263.42411,458.41172 L 263.42411,409.37326 L 214.38565,409.37326"
         id="path3446"
         style="fill:none;fill-rule:evenodd;stroke:#00ff00;stroke-width:1.96153855;stroke-linecap:butt;stroke-linejoin:miter;stroke-miterlimit:4;stroke-dasharray:none;stroke-opacity:1" />
    </g>
    <g
       transform="matrix(-0.4419418,-0.4419418,-0.4419418,0.4419418,703.05157,432.86113)"
       id="g3448"
       style="stroke:#00ff00;stroke-opacity:1">
      <path
         d="M 400,567.36218 A 25,25 0 1 1 375,542.36218"
         transform="matrix(1.9607843,0,0,1.9607843,-520.88923,-654.08237)"
         id="path3450"
         style="fill:none;stroke:#00ff00;stroke-width:1;stroke-linejoin:miter;stroke-miterlimit:4;stroke-dasharray:none;stroke-opacity:1" />
      <path
         d="M 263.42411,458.41172 L 263.42411,409.37326 L 214.38565,409.37326"
         id="path3452"
         style="fill:none;fill-rule:evenodd;stroke:#00ff00;stroke-width:1.96153855;stroke-linecap:butt;stroke-linejoin:miter;stroke-miterlimit:4;stroke-dasharray:none;stroke-opacity:1" />
    </g>
    <g
       transform="matrix(0.4419418,-0.4419418,-0.4419418,-0.4419418,425.21532,749.69941)"
       id="g3454"
       style="stroke:#00ff00;stroke-opacity:1">
      <path
         d="M 400,567.36218 A 25,25 0 1 1 375,542.36218"
         transform="matrix(1.9607843,0,0,1.9607843,-520.88923,-654.08237)"
         id="path3456"
         style="fill:none;stroke:#00ff00;stroke-width:1;stroke-linejoin:miter;stroke-miterlimit:4;stroke-dasharray:none;stroke-opacity:1" />
      <path
         d="M 263.42411,458.41172 L 263.42411,409.37326 L 214.38565,409.37326"
         id="path3458"
         style="fill:none;fill-rule:evenodd;stroke:#00ff00;stroke-width:1.96153855;stroke-linecap:butt;stroke-linejoin:miter;stroke-miterlimit:4;stroke-dasharray:none;stroke-opacity:1" />
    </g>
    <g
       transform="matrix(-0.4419418,0.4419418,0.4419418,0.4419418,386.21326,155.02487)"
       id="g3460"
       style="stroke:#00ff00;stroke-opacity:1">
      <path
         d="M 400,567.36218 A 25,25 0 1 1 375,542.36218"
         transform="matrix(1.9607843,0,0,1.9607843,-520.88923,-654.08237)"
         id="path3462"
         style="fill:none;stroke:#00ff00;stroke-width:1;stroke-linejoin:miter;stroke-miterlimit:4;stroke-dasharray:none;stroke-opacity:1" />
      <path
         d="M 263.42411,458.41172 L 263.42411,409.37326 L 214.38565,409.37326"
         id="path3464"
         style="fill:none;fill-rule:evenodd;stroke:#00ff00;stroke-width:1.96153855;stroke-linecap:butt;stroke-linejoin:miter;stroke-miterlimit:4;stroke-dasharray:none;stroke-opacity:1" />
    </g>
    <g
       transform="matrix(0.4419418,0.4419418,0.4419418,-0.4419418,108.37702,586.86323)"
       id="g3466"
       style="stroke:#00ff00;stroke-opacity:1">
      <path
         d="M 400,567.36218 A 25,25 0 1 1 375,542.36218"
         transform="matrix(1.9607843,0,0,1.9607843,-520.88923,-654.08237)"
         id="path3468"
         style="fill:none;stroke:#00ff00;stroke-width:1;stroke-linejoin:miter;stroke-miterlimit:4;stroke-dasharray:none;stroke-opacity:1" />
      <path
         d="M 263.42411,458.41172 L 263.42411,409.37326 L 214.38565,409.37326"
         id="path3470"
         style="fill:none;fill-rule:evenodd;stroke:#00ff00;stroke-width:1.96153855;stroke-linecap:butt;stroke-linejoin:miter;stroke-miterlimit:4;stroke-dasharray:none;stroke-opacity:1" />
    </g>
    <g
       transform="matrix(-0.4419418,0.4419418,0.4419418,0.4419418,271.21326,155.02491)"
       id="g3472"
       style="stroke:#00ff00;stroke-opacity:1">
      <path
         d="M 400,567.36218 A 25,25 0 1 1 375,542.36218"
         transform="matrix(1.9607843,0,0,1.9607843,-520.88923,-654.08237)"
         id="path3474"
         style="fill:none;stroke:#00ff00;stroke-width:1;stroke-linejoin:miter;stroke-miterlimit:4;stroke-dasharray:none;stroke-opacity:1" />
      <path
         d="M 263.42411,458.41172 L 263.42411,409.37326 L 214.38565,409.37326"
         id="path3476"
         style="fill:none;fill-rule:evenodd;stroke:#00ff00;stroke-width:1.96153855;stroke-linecap:butt;stroke-linejoin:miter;stroke-miterlimit:4;stroke-dasharray:none;stroke-opacity:1" />
    </g>
    <g
       transform="matrix(0.4419418,-0.4419418,-0.4419418,-0.4419418,540.21532,749.69948)"
       id="g3478"
       style="stroke:#00ff00;stroke-opacity:1">
      <path
         d="M 400,567.36218 A 25,25 0 1 1 375,542.36218"
         transform="matrix(1.9607843,0,0,1.9607843,-520.88923,-654.08237)"
         id="path3480"
         style="fill:none;stroke:#00ff00;stroke-width:1;stroke-linejoin:miter;stroke-miterlimit:4;stroke-dasharray:none;stroke-opacity:1" />
      <path
         d="M 263.42411,458.41172 L 263.42411,409.37326 L 214.38565,409.37326"
         id="path3482"
         style="fill:none;fill-rule:evenodd;stroke:#00ff00;stroke-width:1.96153855;stroke-linecap:butt;stroke-linejoin:miter;stroke-miterlimit:4;stroke-dasharray:none;stroke-opacity:1" />
    </g>
    <g
       transform="matrix(0.4419418,-0.4419418,0.4419418,0.4419418,108.37702,317.86117)"
       id="g3484"
       style="stroke:#00ff00;stroke-opacity:1">
      <path
         d="M 400,567.36218 A 25,25 0 1 1 375,542.36218"
         transform="matrix(1.9607843,0,0,1.9607843,-520.88923,-654.08237)"
         id="path3486"
         style="fill:none;stroke:#00ff00;stroke-width:1;stroke-linejoin:miter;stroke-miterlimit:4;stroke-dasharray:none;stroke-opacity:1" />
      <path
         d="M 263.42411,458.41172 L 263.42411,409.37326 L 214.38565,409.37326"
         id="path3488"
         style="fill:none;fill-rule:evenodd;stroke:#00ff00;stroke-width:1.96153855;stroke-linecap:butt;stroke-linejoin:miter;stroke-miterlimit:4;stroke-dasharray:none;stroke-opacity:1" />
    </g>
    <g
       transform="matrix(0,-0.6250001,-0.6250001,0,660.95964,547.61529)"
       id="g3490"
       style="stroke:#00ff00;stroke-opacity:1">
      <path
         d="M 400,567.36218 A 25,25 0 1 1 375,542.36218"
         transform="matrix(1.9607843,0,0,1.9607843,-520.88923,-654.08237)"
         id="path3492"
         style="fill:none;stroke:#00ff00;stroke-width:1;stroke-linejoin:miter;stroke-miterlimit:4;stroke-dasharray:none;stroke-opacity:1" />
      <path
         d="M 263.42411,458.41172 L 263.42411,409.37326 L 214.38565,409.37326"
         id="path3494"
         style="fill:none;fill-rule:evenodd;stroke:#00ff00;stroke-width:1.96153855;stroke-linecap:butt;stroke-linejoin:miter;stroke-miterlimit:4;stroke-dasharray:none;stroke-opacity:1" />
    </g>
    <g
       transform="matrix(0,0.6250001,0.6250001,0,80.468936,287.10913)"
       id="g3496"
       style="stroke:#00ff00;stroke-opacity:1">
      <path
         d="M 400,567.36218 A 25,25 0 1 1 375,542.36218"
         transform="matrix(1.9607843,0,0,1.9607843,-520.88923,-654.08237)"
         id="path3498"
         style="fill:none;stroke:#00ff00;stroke-width:1;stroke-linejoin:miter;stroke-miterlimit:4;stroke-dasharray:none;stroke-opacity:1" />
      <path
         d="M 263.42411,458.41172 L 263.42411,409.37326 L 214.38565,409.37326"
         id="path3500"
         style="fill:none;fill-rule:evenodd;stroke:#00ff00;stroke-width:1.96153855;stroke-linecap:butt;stroke-linejoin:miter;stroke-miterlimit:4;stroke-dasharray:none;stroke-opacity:1" />
    </g>
    <g
       transform="matrix(-0.6250001,0,0,0.6250001,570.96737,127.11686)"
       id="g3502"
       style="stroke:#00ff00;stroke-opacity:1">
      <path
         d="M 400,567.36218 A 25,25 0 1 1 375,542.36218"
         transform="matrix(1.9607843,0,0,1.9607843,-520.88923,-654.08237)"
         id="path3504"
         style="fill:none;stroke:#00ff00;stroke-width:1;stroke-linejoin:miter;stroke-miterlimit:4;stroke-dasharray:none;stroke-opacity:1" />
      <path
         d="M 263.42411,458.41172 L 263.42411,409.37326 L 214.38565,409.37326"
         id="path3506"
         style="fill:none;fill-rule:evenodd;stroke:#00ff00;stroke-width:1.96153855;stroke-linecap:butt;stroke-linejoin:miter;stroke-miterlimit:4;stroke-dasharray:none;stroke-opacity:1" />
    </g>
    <g
       transform="matrix(-0.6250001,0,0,0.6250001,500.96737,197.11686)"
       id="g3508"
       style="stroke:#00ff00;stroke-opacity:1">
      <path
         d="M 400,567.36218 A 25,25 0 1 1 375,542.36218"
         transform="matrix(1.9607843,0,0,1.9607843,-520.88923,-654.08237)"
         id="path3510"
         style="fill:none;stroke:#00ff00;stroke-width:1;stroke-linejoin:miter;stroke-miterlimit:4;stroke-dasharray:none;stroke-opacity:1" />
      <path
         d="M 263.42411,458.41172 L 263.42411,409.37326 L 214.38565,409.37326"
         id="path3512"
         style="fill:none;fill-rule:evenodd;stroke:#00ff00;stroke-width:1.96153855;stroke-linecap:butt;stroke-linejoin:miter;stroke-miterlimit:4;stroke-dasharray:none;stroke-opacity:1" />
    </g>
    <g
       transform="matrix(0,-0.6250001,-0.6250001,0,730.95964,617.61529)"
       id="g3514"
       style="stroke:#00ff00;stroke-opacity:1">
      <path
         d="M 400,567.36218 A 25,25 0 1 1 375,542.36218"
         transform="matrix(1.9607843,0,0,1.9607843,-520.88923,-654.08237)"
         id="path3516"
         style="fill:none;stroke:#00ff00;stroke-width:1;stroke-linejoin:miter;stroke-miterlimit:4;stroke-dasharray:none;stroke-opacity:1" />
      <path
         d="M 263.42411,458.41172 L 263.42411,409.37326 L 214.38565,409.37326"
         id="path3518"
         style="fill:none;fill-rule:evenodd;stroke:#00ff00;stroke-width:1.96153855;stroke-linecap:butt;stroke-linejoin:miter;stroke-miterlimit:4;stroke-dasharray:none;stroke-opacity:1" />
    </g>
    <g
       transform="matrix(0.6250001,0,0,-0.6250001,310.46121,707.60756)"
       id="g3520"
       style="stroke:#00ff00;stroke-opacity:1">
      <path
         d="M 400,567.36218 A 25,25 0 1 1 375,542.36218"
         transform="matrix(1.9607843,0,0,1.9607843,-520.88923,-654.08237)"
         id="path3522"
         style="fill:none;stroke:#00ff00;stroke-width:1;stroke-linejoin:miter;stroke-miterlimit:4;stroke-dasharray:none;stroke-opacity:1" />
      <path
         d="M 263.42411,458.41172 L 263.42411,409.37326 L 214.38565,409.37326"
         id="path3524"
         style="fill:none;fill-rule:evenodd;stroke:#00ff00;stroke-width:1.96153855;stroke-linecap:butt;stroke-linejoin:miter;stroke-miterlimit:4;stroke-dasharray:none;stroke-opacity:1" />
    </g>
    <g
       transform="matrix(0.6250001,0,0,-0.6250001,240.46121,777.60756)"
       id="g3526"
       style="stroke:#00ff00;stroke-opacity:1">
      <path
         d="M 400,567.36218 A 25,25 0 1 1 375,542.36218"
         transform="matrix(1.9607843,0,0,1.9607843,-520.88923,-654.08237)"
         id="path3528"
         style="fill:none;stroke:#00ff00;stroke-width:1;stroke-linejoin:miter;stroke-miterlimit:4;stroke-dasharray:none;stroke-opacity:1" />
      <path
         d="M 263.42411,458.41172 L 263.42411,409.37326 L 214.38565,409.37326"
         id="path3530"
         style="fill:none;fill-rule:evenodd;stroke:#00ff00;stroke-width:1.96153855;stroke-linecap:butt;stroke-linejoin:miter;stroke-miterlimit:4;stroke-dasharray:none;stroke-opacity:1" />
    </g>
    <g
       transform="matrix(0,0.6250001,0.6250001,0,150.46894,357.10913)"
       id="g3532"
       style="stroke:#00ff00;stroke-opacity:1">
      <path
         d="M 400,567.36218 A 25,25 0 1 1 375,542.36218"
         transform="matrix(1.9607843,0,0,1.9607843,-520.88923,-654.08237)"
         id="path3534"
         style="fill:none;stroke:#00ff00;stroke-width:1;stroke-linejoin:miter;stroke-miterlimit:4;stroke-dasharray:none;stroke-opacity:1" />
      <path
         d="M 263.42411,458.41172 L 263.42411,409.37326 L 214.38565,409.37326"
         id="path3536"
         style="fill:none;fill-rule:evenodd;stroke:#00ff00;stroke-width:1.96153855;stroke-linecap:butt;stroke-linejoin:miter;stroke-miterlimit:4;stroke-dasharray:none;stroke-opacity:1" />
    </g>
  </g>
</svg>
